HIERARCHY
ROOT Hips
{
	OFFSET 0.00 0.00 0.00
	CHANNELS 6 Xposition Yposition Zposition Xrotation Yrotation Zrotation
	JOINT Spine
	{
		OFFSET 0.00000 4.88528 0.00000
		CHANNELS 3 Xrotation Yrotation Zrotation
		JOINT Head
		{
			OFFSET 0.00000 16.49416 0.00000
			CHANNELS 3 Xrotation Yrotation Zrotation
			End Site
			{
				OFFSET 0.00000 4.52755 0.00000
			}
		}
		JOINT LeftShoulder
		{
			OFFSET 0.00000 10.66345 0.00000
			CHANNELS 3 Xrotation Yrotation Zrotation
			JOINT LeftArm
			{
				OFFSET 7.53191 0.00000 0.00000
				CHANNELS 3 Xrotation Yrotation Zrotation
				JOINT LeftForeArm
				{
					OFFSET 10.22920 0.00000 0.00000
					CHANNELS 3 Yrotation Zrotation Xrotation
					JOINT LeftHand
					{
						OFFSET 8.67349 0.00000 0.00000
						CHANNELS 3 Xrotation Yrotation Zrotation
						JOINT LeftHandThumb1
						{
							OFFSET 0.00000 0.00000 0.00000
							CHANNELS 3 Xrotation Zrotation Yrotation
							End Site
							{
								OFFSET 0.00000 0.00000 3.93700
							}
						}
						End Site
						{
							OFFSET 3.93700 0.00000 0.00000
						}
					}
				}
			}
		}
		JOINT RightShoulder
		{
			OFFSET 0.00000 10.66345 0.00000
			CHANNELS 3 Xrotation Yrotation Zrotation
			JOINT RightArm
			{
				OFFSET -7.53191 0.00000 0.00000
				CHANNELS 3 Xrotation Yrotation Zrotation
				JOINT RightForeArm
				{
					OFFSET -10.22920 0.00000 0.00000
					CHANNELS 3 Yrotation Zrotation Xrotation
					JOINT RightHand
					{
						OFFSET -8.67349 0.00000 0.00000
						CHANNELS 3 Xrotation Yrotation Zrotation
						JOINT RightHandThumb1
						{
							OFFSET 0.00000 0.00000 0.00000
							CHANNELS 3 Xrotation Zrotation Yrotation
							End Site
							{
								OFFSET 0.00000 0.00000 3.93700
							}
						}
						End Site
						{
							OFFSET -3.93700 0.00000 0.00000
						}
					}
				}
			}
		}
	}
	JOINT LeftUpLeg
	{
		OFFSET 2.67219 0.00000 0.00000
		CHANNELS 3 Xrotation Yrotation Zrotation
		JOINT LeftLeg
		{
			OFFSET 0.00000 -16.26339 0.00000
			CHANNELS 3 Xrotation Yrotation Zrotation
			JOINT LeftFoot
			{
				OFFSET 0.00000 -14.32816 0.00000
				CHANNELS 3 Xrotation Yrotation Zrotation
				JOINT LeftToeBase
				{
					OFFSET 0.00000 -1.30219 4.85985
					CHANNELS 3 Xrotation Yrotation Zrotation
					End Site
					{
						OFFSET 0.00000 0.00000 2.95275
					}
				}
			}
		}
	}
	JOINT RightUpLeg
	{
		OFFSET -2.67219 0.00000 0.00000
		CHANNELS 3 Xrotation Yrotation Zrotation
		JOINT RightLeg
		{
			OFFSET 0.00000 -16.26339 0.00000
			CHANNELS 3 Xrotation Yrotation Zrotation
			JOINT RightFoot
			{
				OFFSET 0.00000 -14.32816 0.00000
				CHANNELS 3 Xrotation Yrotation Zrotation
				JOINT RightToeBase
				{
					OFFSET 0.00000 -1.30219 4.85985
					CHANNELS 3 Xrotation Yrotation Zrotation
					End Site
					{
						OFFSET 0.00000 0.00000 2.95275
					}
				}
			}
		}
	}
}
MOTION
Frames: 9
Frame Time: 0.008333
 1.2661 32.9245 1.1256 4.6990 2.4715 -2.3220 -7.1914 -7.4566 -0.3740 15.8851 -1.8092 0.4704 36.2984 33.9387 15.1220 -75.1946 -3.9966 -31.2487 3.5138 0.0000 7.3475 0.3495 -2.2542 8.8153 33.1476 -0.0000 26.2537 -7.6263 -5.6410 -31.0565 -21.8998 1.8197 38.8580 1.1464 -0.0000 13.3068 -0.1075 2.0437 3.0119 32.8623 0.0000 -24.3270 2.5601 -6.4929 2.0055 -5.0392 0.0000 0.0000 -1.5172 11.4062 -14.2342 -8.7186 -0.0000 0.0000 2.3285 -2.0523 3.9932 -3.6305 0.0000 -0.0000 -4.9191 -11.3296 4.5768 -1.2322 0.0000 -0.0000
 1.2640 32.9241 1.1348 4.7019 2.4804 -2.3200 -7.2329 -7.4557 -0.3826 15.9266 -1.8176 0.4775 36.3410 33.9253 15.1122 -75.2777 -3.9442 -31.2748 3.4994 0.0000 7.4122 0.3477 -2.2336 8.8502 33.1476 -0.0000 26.2537 -7.6059 -5.6626 -31.0526 -21.9403 1.8295 38.8834 1.1539 -0.0000 13.3545 -0.1071 2.0581 2.9801 32.8623 0.0000 -24.3270 2.5805 -6.5159 2.0074 -5.0541 0.0000 0.0000 -1.5205 11.4313 -14.2162 -8.6406 -0.0000 0.0000 2.3460 -2.0482 3.9966 -3.6420 -0.0000 -0.0000 -4.9148 -11.3379 4.5396 -1.2556 0.0000 0.0000
 1.2610 32.9236 1.1443 4.7016 2.4951 -2.3147 -7.2683 -7.4686 -0.4038 15.9620 -1.7988 0.4960 36.3339 33.9358 15.1317 -75.3158 -3.8786 -31.3210 3.4384 0.0000 7.5020 0.3374 -2.1825 8.7903 33.1476 -0.0000 26.2537 -7.5951 -5.6645 -31.0335 -21.9320 1.8609 38.8995 1.1519 -0.0000 13.2981 -0.1063 2.0726 2.9377 32.8623 0.0000 -24.3270 2.5924 -6.5176 2.0079 -5.0458 -0.0000 -0.0000 -1.5208 11.4111 -14.2125 -8.7383 0.0000 0.0000 2.3722 -2.0337 3.9967 -3.6615 0.0000 0.0000 -4.9084 -11.3613 4.5326 -1.2438 -0.0000 0.0000
 1.2581 32.9231 1.1537 4.7098 2.5105 -2.3068 -7.3141 -7.4861 -0.4255 15.9900 -1.7850 0.5080 36.4069 33.9639 15.1017 -75.3082 -3.9291 -31.3637 3.4739 0.0000 7.4323 0.3355 -2.1937 8.6968 33.1476 -0.0000 26.2537 -7.5285 -5.7114 -31.0260 -22.0308 1.8738 38.9375 1.1505 -0.0000 13.3833 -0.1075 2.0855 2.9519 32.8623 0.0000 -24.3270 2.5927 -6.5049 2.0020 -5.0306 -0.0000 -0.0000 -1.5459 11.3870 -14.1845 -8.7343 -0.0000 -0.0000 2.3912 -2.0409 3.9961 -3.6820 -0.0000 -0.0000 -4.9063 -11.3659 4.5149 -1.2186 -0.0000 0.0000
 1.2560 32.9221 1.1631 4.7146 2.5191 -2.3026 -7.3564 -7.4919 -0.4387 16.0201 -1.7804 0.5177 36.4439 33.9689 15.0875 -75.3145 -3.9475 -31.3979 3.4960 0.0000 7.3993 0.3381 -2.2258 8.6405 33.1476 -0.0000 26.2537 -7.5106 -5.7067 -31.0203 -22.0360 1.8795 38.9576 1.1473 -0.0000 13.3917 -0.1059 2.1166 2.8654 32.8623 0.0000 -24.3270 2.5992 -6.5026 2.0005 -5.0229 0.0000 0.0000 -1.5642 11.3892 -14.1835 -8.7150 -0.0000 -0.0000 2.4086 -2.0414 3.9969 -3.6928 0.0000 0.0000 -4.9076 -11.3668 4.4831 -1.2753 0.0000 -0.0000
 1.2535 32.9214 1.1715 4.7291 2.5233 -2.3028 -7.4025 -7.4961 -0.4495 16.0343 -1.7672 0.5338 36.4721 33.9760 15.0767 -75.3342 -3.9419 -31.4299 3.4902 0.0000 7.4194 0.3300 -2.1884 8.5775 33.1476 -0.0000 26.2537 -7.4894 -5.7173 -30.9996 -22.0763 1.8951 38.9744 1.1259 -0.0000 13.3857 -0.1059 2.1518 2.8172 32.8623 0.0000 -24.3270 2.5941 -6.5016 2.0024 -5.0110 -0.0000 0.0000 -1.5859 11.3930 -14.1842 -8.7241 0.0000 -0.0000 2.4140 -2.0423 3.9995 -3.7030 0.0000 -0.0000 -4.9049 -11.3607 4.4919 -1.2554 -0.0000 -0.0000
 1.2498 32.9203 1.1810 4.7371 2.5341 -2.3048 -7.4400 -7.4976 -0.4677 16.0405 -1.7718 0.5826 36.4655 33.9838 15.0900 -75.2975 -3.9861 -31.4659 3.5235 0.0000 7.4192 0.3220 -2.1585 8.4878 33.1476 -0.0000 26.2537 -7.5336 -5.6911 -30.9737 -22.0257 1.9017 38.9775 1.1156 -0.0000 13.3775 -0.1114 2.2165 2.8781 32.8623 0.0000 -24.3270 2.6007 -6.4934 2.0107 -5.0057 0.0000 0.0000 -1.5991 11.3693 -14.1889 -8.7294 -0.0000 0.0000 2.4344 -2.0550 4.0096 -3.7245 -0.0000 -0.0000 -4.9028 -11.3529 4.4990 -1.2637 0.0000 -0.0000
 1.2475 32.9191 1.1897 4.7414 2.5458 -2.3036 -7.4704 -7.5062 -0.4763 16.0412 -1.7774 0.5815 36.4870 33.9755 15.0759 -75.3109 -3.9962 -31.4734 3.5579 0.0000 7.4702 0.3087 -2.1076 8.3355 33.1476 -0.0000 26.2537 -7.4909 -5.7183 -30.9746 -22.1025 1.8829 39.0158 1.1172 -0.0000 13.3943 -0.1124 2.2976 2.8021 32.8623 0.0000 -24.3270 2.6046 -6.5056 2.0142 -4.9913 0.0000 0.0000 -1.6255 11.3688 -14.1711 -8.7046 -0.0000 0.0000 2.4641 -2.0282 4.0103 -3.7660 -0.0000 -0.0000 -4.8888 -11.3818 4.4975 -1.2568 0.0000 -0.0000
 1.2450 32.9178 1.1985 4.7452 2.5516 -2.2994 -7.5009 -7.4979 -0.4902 16.0417 -1.7891 0.6000 36.5043 33.9756 15.0750 -75.2329 -4.0656 -31.4952 3.5932 0.0000 7.4071 0.3009 -2.0804 8.2314 33.1476 -0.0000 26.2537 -7.4579 -5.7563 -30.9563 -22.1451 1.9129 39.0280 1.0886 -0.0000 13.3656 -0.1112 2.4060 2.6474 32.8623 0.0000 -24.3270 2.6186 -6.5314 2.0131 -4.9859 0.0000 -0.0000 -1.6849 11.3976 -14.0876 -8.5633 -0.0000 -0.0000 2.4853 -2.0271 4.0101 -3.7877 -0.0000 -0.0000 -4.8801 -11.3788 4.4944 -1.3294 0.0000 -0.0000
